<?xml version="1.0" encoding="UTF-8" standalone="no"?><!DOCTYPE svg PUBLIC "-//W3C//DTD SVG 1.1//EN" "http://www.w3.org/Graphics/SVG/1.1/DTD/svg11.dtd"><svg width="100%" height="100%" viewBox="0 0 500 500" version="1.1" xmlns="http://www.w3.org/2000/svg" xmlns:xlink="http://www.w3.org/1999/xlink" xml:space="preserve" style="fill-rule:evenodd;clip-rule:evenodd;stroke-linejoin:round;stroke-miterlimit:1.41421;"><path d="M403.563,320.333l0,0l-0.006,-0.006l0.006,0.006Zm-234.939,-25.333l-99.617,-90l172.369,0c22.068,0 42.291,7.96 57.953,21.163l0,-0.001l0.007,0.006c1.582,1.334 3.117,2.721 4.603,4.159l95.013,85.84c-15.525,-13.09 -35.533,-21.027 -57.377,-21.165l-0.582,-0.002l-172.369,0Z" style="fill:#ff2d2d;"/><path d="M69.007,385l172.369,0c49.672,0 90,-40.328 90,-90l9.617,0l0.582,0.002c49.405,0.313 89.418,40.52 89.418,89.998c0,49.478 -40.012,89.685 -89.418,89.998l-0.582,0.002l-172.369,0l-99.617,-90Z" style="fill:#ff9393;"/><path d="M358.792,140.333l0,0l-0.007,-0.006l0.007,0.006Zm-190.168,-25.333l-99.617,-90l127.597,0c22.068,0 42.292,7.96 57.954,21.163l0,-0.001l0.006,0.006c1.583,1.334 3.118,2.721 4.604,4.159l95.013,85.84c-15.526,-13.09 -35.533,-21.027 -57.377,-21.165l-0.582,-0.002l-127.598,0Z" style="fill:#ff2d2d;"/><path d="M168.624,115l-99.617,-90l0,360l99.617,90l0,-360Z" style="fill:#e10000;"/></svg>