<svg viewBox="0 0 44 44" xmlns="http://www.w3.org/2000/svg" fill-rule="evenodd" clip-rule="evenodd" stroke-linejoin="round" stroke-miterlimit="1.414"><path d="M44 11c0-6.071-4.929-11-11-11H11C4.929 0 0 4.929 0 11v22c0 6.071 4.929 11 11 11h22c6.071 0 11-4.929 11-11V11z" fill="#fff"/><path d="M33.142.001l.142.003.141.004.141.006.14.008.14.01.139.012.139.013.138.015.138.016.137.019.137.02.136.022.136.023.135.025.135.027.134.028.133.03.133.031.132.034.131.034.131.037.13.037.13.04.128.041.128.042.128.044.127.046.126.047.125.049.124.05.124.051.123.053.122.054.122.056.12.057.12.059.119.06.118.062.117.062.117.065.116.065.114.067.114.068.113.07.112.071.111.072.11.074.11.075.108.076.107.077.107.079.105.079.105.081.103.083.102.083.102.085.1.086.099.087.099.088.097.089.096.091.095.092.094.092.092.094.092.095.091.096.089.097.088.099.087.099.086.1.085.102.083.102.083.103.081.105.079.105.079.107.077.107.076.108.075.11.074.11.072.111.071.112.07.113.068.114.067.114.065.116.065.117.062.117.062.118.06.119.059.12.057.12.056.122.054.122.053.123.051.124.05.124.049.125.047.126.046.127.044.128.042.128.041.128.04.13.037.13.037.131.034.131.034.132.031.133.03.133.028.134.027.135.025.135.023.136.022.136.02.137.019.137.016.138.015.138.013.139.012.139.01.14.008.14.006.141.004.141.003.142L44 11v22l-.001.142-.003.142-.004.141-.006.141-.008.14-.01.14-.012.139-.013.139-.015.138-.016.138-.019.137-.02.137-.022.136-.023.136-.025.135-.027.135-.028.134-.03.133-.031.133-.034.132-.034.131-.037.131-.037.13-.04.13-.041.128-.042.128-.044.128-.046.127-.047.126-.049.125-.05.124-.051.124-.053.123-.054.122-.056.122-.057.12-.059.12-.06.119-.062.118-.062.117-.065.117-.065.116-.067.114-.068.114-.07.113-.071.112-.072.111-.074.11-.075.11-.076.108-.077.107-.079.107-.079.105-.081.105-.083.103-.083.102-.085.102-.086.1-.087.099-.088.099-.089.097-.091.096-.092.095-.092.094-.094.092-.095.092-.096.091-.097.089-.099.088-.099.087-.1.086-.102.085-.102.083-.103.083-.105.081-.105.079-.107.079-.107.077-.108.076-.11.075-.11.074-.111.072-.112.071-.113.07-.114.068-.114.067-.116.065-.117.065-.117.062-.118.062-.119.06-.12.059-.12.057-.122.056-.122.054-.123.053-.124.051-.124.05-.125.049-.126.047-.127.046-.128.044-.128.042-.128.041-.13.04-.13.037-.131.037-.131.034-.132.034-.133.031-.133.03-.134.028-.135.027-.135.025-.136.023-.136.022-.137.02-.137.019-.138.016-.138.015-.139.013-.139.012-.14.01-.14.008-.141.006-.141.004-.142.003L33 44H11l-.142-.001-.142-.003-.141-.004-.141-.006-.14-.008-.14-.01-.139-.012-.139-.013-.138-.015-.138-.016-.137-.019-.137-.02-.136-.022-.136-.023-.135-.025-.135-.027-.134-.028-.133-.03-.133-.031-.132-.034-.131-.034-.131-.037-.13-.037-.13-.04-.128-.041-.128-.042-.128-.044-.127-.046-.126-.047-.125-.049-.124-.05-.124-.051-.123-.053-.122-.054-.122-.056-.12-.057-.12-.059-.119-.06-.118-.062-.117-.062-.117-.065-.116-.065-.114-.067-.114-.068-.113-.07-.112-.071-.111-.072-.11-.074-.11-.075-.108-.076-.107-.077-.107-.079-.105-.079-.105-.081-.103-.083-.102-.083-.102-.085-.1-.086-.099-.087-.099-.088-.097-.089-.096-.091-.095-.092-.094-.092-.092-.094-.092-.095-.091-.096-.089-.097-.088-.099-.087-.099-.086-.1-.085-.102-.083-.102-.083-.103-.081-.105-.079-.105-.079-.107-.077-.107-.076-.108-.075-.11-.074-.11-.072-.111-.071-.112-.07-.113-.068-.114-.067-.114-.065-.116-.065-.117-.062-.117-.062-.118-.06-.119-.059-.12-.057-.12-.056-.122-.054-.122-.053-.123-.051-.124-.05-.124-.049-.125-.047-.126-.046-.127-.044-.128-.042-.128-.041-.128-.04-.13-.037-.13-.037-.131-.034-.131-.034-.132-.031-.133-.03-.133-.028-.134-.027-.135-.025-.135-.023-.136-.022-.136-.02-.137-.019-.137-.016-.138-.015-.138-.013-.139-.012-.139-.01-.14-.008-.14-.006-.141-.004-.141-.003-.142L0 33V11l.001-.142.003-.142.004-.141.006-.141.008-.14.01-.14.012-.139.013-.139.015-.138.016-.138.019-.137.02-.137.022-.136.023-.136.025-.135.027-.135.028-.134.03-.133.031-.133.034-.132.034-.131.037-.131.037-.13.04-.13.041-.128.042-.128.044-.128.046-.127.047-.126.049-.125.05-.124.051-.124.053-.123.054-.122.056-.122.057-.12.059-.12.06-.119.062-.118.062-.117.065-.117.065-.116.067-.114.068-.114.07-.113.071-.112.072-.111.074-.11.075-.11.076-.108.077-.107.079-.107.079-.105.081-.105.083-.103.083-.102.085-.102.086-.1.087-.099.088-.099.089-.097.091-.096.092-.095.092-.094.094-.092.095-.092.096-.091.097-.089.099-.088.099-.087.1-.086.102-.085.102-.083.103-.083.105-.081.105-.079.107-.079.107-.077.108-.076.11-.075.11-.074.111-.072.112-.071.113-.07.114-.068.114-.067.116-.065.117-.065.117-.062.118-.062.119-.06.12-.059.12-.057.122-.056.122-.054.123-.053.124-.051.124-.05.125-.049.126-.047.127-.046.128-.044.128-.042.128-.041.13-.04.13-.037.131-.037.131-.034.132-.034.133-.031.133-.03.134-.028.135-.027.135-.025.136-.023.136-.022.137-.02L9.6.088l.138-.016.138-.015.139-.013.139-.012.14-.01.14-.008.141-.006.141-.004.142-.003L11 0h22l.142.001zM11.003 1l-.132.001-.129.002-.129.004-.128.006-.128.007-.127.009-.127.011-.126.012-.126.013-.125.015-.125.017-.124.018-.124.02-.123.021-.123.023-.122.024-.122.026-.121.027-.12.029-.12.03-.12.032-.119.032-.118.035-.117.036-.117.037-.117.039-.115.04-.115.041-.115.043-.114.044-.113.045-.112.047-.112.048-.111.049-.11.051-.11.052-.109.054-.108.054-.107.056-.107.057-.106.058-.105.06-.104.061-.104.062-.102.063-.102.065-.101.065-.1.067-.1.068-.098.069-.098.071-.097.071-.096.073-.095.074-.094.074-.093.076-.092.077-.091.079-.091.079-.089.08-.088.081-.088.083-.086.083-.086.084-.084.086-.083.086-.083.088-.081.088-.08.089-.079.091-.079.091-.077.092-.076.093-.074.094-.074.095-.073.096-.071.097-.071.098-.069.098-.068.1-.067.1-.065.101-.065.102-.063.102-.062.104-.061.104-.06.105-.058.106-.057.107-.056.107-.054.108-.054.109-.052.11-.051.11-.049.111-.048.112-.047.112-.045.113-.044.114-.043.115-.041.115-.04.115-.039.117-.037.117-.036.117-.035.118-.032.119-.032.12-.03.12-.029.12-.027.121-.026.122-.024.122-.023.123-.021.123-.02.124-.018.124-.017.125-.015.125-.013.126-.012.126-.011.127-.009.127-.007.128-.006.128-.004.129-.002.129-.001.132v21.994l.001.132.002.129.004.129.006.128.007.128.009.127.011.127.012.126.013.126.015.125.017.125.018.124.02.124.021.123.023.123.024.122.026.122.027.121.029.12.03.12.032.12.032.119.035.118.036.117.037.117.039.117.04.115.041.115.043.115.044.114.045.113.047.112.048.112.049.111.051.11.052.11.054.109.054.108.056.107.057.107.058.106.06.105.061.104.062.104.063.102.065.102.065.101.067.1.068.1.069.098.071.098.071.097.073.096.074.095.074.094.076.093.077.092.079.091.079.091.08.089.081.088.083.088.083.086.084.086.086.084.086.083.088.083.088.081.089.08.091.079.091.079.092.077.093.076.094.074.095.074.096.073.097.071.098.071.098.069.1.068.1.067.101.065.102.065.102.063.104.062.104.061.105.06.106.058.107.057.107.056.108.054.109.054.11.052.11.051.111.049.112.048.112.047.113.045.114.044.115.043.115.041.115.04.117.039.117.037.117.036.118.034.119.033.12.032.12.03.12.029.121.027.122.026.122.024.123.023.123.021.124.02.124.018.125.017.125.015.126.013.126.012.127.011.127.009.128.007.128.006.129.004.129.002.132.001h21.994l.132-.001.129-.002.129-.004.128-.006.128-.007.127-.009.127-.011.126-.012.126-.013.125-.015.125-.017.124-.018.124-.02.123-.021.123-.023.122-.024.122-.026.121-.027.12-.029.12-.03.12-.032.119-.033.118-.034.117-.036.117-.037.117-.039.115-.04.115-.041.115-.043.114-.044.113-.045.112-.047.112-.048.111-.049.11-.051.11-.052.109-.054.108-.054.107-.056.107-.057.106-.058.105-.06.104-.061.104-.062.102-.063.102-.065.101-.065.1-.067.1-.068.098-.069.098-.071.097-.071.096-.073.095-.074.094-.074.093-.076.092-.077.091-.079.091-.079.089-.08.088-.081.088-.083.086-.083.086-.084.084-.086.083-.086.083-.088.081-.088.08-.089.079-.091.079-.091.077-.092.076-.093.074-.094.074-.095.073-.096.071-.097.071-.098.069-.098.068-.1.067-.1.065-.101.065-.102.063-.102.062-.104.061-.104.06-.105.058-.106.057-.107.056-.107.054-.108.054-.109.052-.11.051-.11.049-.111.048-.112.047-.112.045-.113.044-.114.043-.115.041-.115.04-.115.039-.117.037-.117.036-.117.034-.118.033-.119.032-.12.03-.12.029-.12.027-.121.026-.122.024-.122.023-.123.021-.123.02-.124.018-.124.017-.125.015-.125.013-.126.012-.126.011-.127.009-.127.007-.128.006-.128.004-.129.002-.129.001-.132V11.003l-.001-.132-.002-.129-.004-.129-.006-.128-.007-.128-.009-.127-.011-.127-.012-.126-.013-.126-.015-.125-.017-.125-.018-.124-.02-.124-.021-.123-.023-.123-.024-.122-.026-.122-.027-.121-.029-.12-.03-.12-.032-.12-.033-.119-.034-.118-.036-.117-.037-.117-.039-.117-.04-.115-.041-.115-.043-.115-.044-.114-.045-.113-.047-.112-.048-.112-.049-.111-.051-.11-.052-.11-.054-.109-.054-.108-.056-.107-.057-.107-.058-.106-.06-.105-.061-.104-.062-.104-.063-.102-.065-.102-.065-.101-.067-.1-.068-.1-.069-.098-.071-.098-.071-.097-.073-.096-.074-.095-.074-.094-.076-.093-.077-.092-.079-.091-.079-.091-.08-.089-.081-.088-.083-.088-.083-.086-.084-.086-.086-.084-.086-.083-.088-.083-.088-.081-.089-.08-.091-.079-.091-.079-.092-.077-.093-.076-.094-.074-.095-.074-.096-.073-.097-.071-.098-.071-.098-.069-.1-.068-.1-.067-.101-.065-.102-.065-.102-.063-.104-.062-.104-.061-.105-.06-.106-.058-.107-.057-.107-.056-.108-.054-.109-.054-.11-.052-.11-.051-.111-.049-.112-.048-.112-.047-.113-.045-.114-.044-.115-.043-.115-.041-.115-.04-.117-.039-.117-.037-.117-.036-.118-.035-.119-.032-.12-.032-.12-.03-.12-.029-.121-.027-.122-.026-.122-.024-.123-.023-.123-.021-.124-.02-.124-.018-.125-.017-.125-.015-.126-.013-.126-.012-.127-.011-.127-.009-.128-.007-.128-.006-.129-.004-.129-.002L32.997 1H11.003z" fill="#c1c1c1"/><path fill="#03d364" fill-rule="nonzero" d="M18 18v8h8v-8z"/><path fill="#ff7a14" fill-rule="nonzero" d="M9 27v8h8v-8z"/><path fill="#03bd5b" fill-rule="nonzero" d="M18 27v8h8v-8z"/><path fill="#3db5ff" fill-rule="nonzero" d="M27 9v8h8V9z"/><path fill="#0aa1ff" fill-rule="nonzero" d="M27 18v8h8v-8z"/><path fill="#0081d5" fill-rule="nonzero" d="M27 27v8h8v-8z"/></svg>