<svg viewBox="0 0 44 44" xmlns="http://www.w3.org/2000/svg" fill-rule="evenodd" clip-rule="evenodd" stroke-linejoin="round" stroke-miterlimit="1.414"><path d="M44 11c0-6.071-4.929-11-11-11H11C4.929 0 0 4.929 0 11v22c0 6.071 4.929 11 11 11h22c6.071 0 11-4.929 11-11V11z" fill="url(#a)"/><path fill="#fff" d="M6.904 29h8.048v8H6.904zM6.904 18h8.048v8H6.904zM6.952 7H15v8H6.952zM17.904 29h8.048v8h-8.048zM29 29h8.048v8h-8.047zM29.049 7h8.048v8h-8.048z"/><defs><linearGradient id="a" x2="1" gradientUnits="userSpaceOnUse" gradientTransform="rotate(-90 29.192 5.684) scale(29.1052)"><stop offset="0%" stop-color="#ca4830"/><stop offset="100%" stop-color="#ff9948"/></linearGradient></defs></svg>