<svg id="Layer_1" xmlns="http://www.w3.org/2000/svg" viewBox="0 168.8 500 170"><style>.st0{fill:#a7a7a7}.st1{enable-background:new}</style><path class="st0" d="M758.5 387.5c-18.5-1-48 20.5-45.5 40h45.5v-40zm22-24.5v144.5h-21V444h-48v63.5H671c0-29-1-58 .5-86.5 1-14.5 11.5-24 22-32.5 25.5-20 55-25.5 87-25.5M228 485V363.5h21V508c-38.5-1-75-8-101.5-41.5-4-4.5-7.5-12-7.5-18.5-1-28-1-55.5-1-84.5h41c0 24-1 48.5.5 72 .5 9.5 3.5 20.5 8.5 28 9.5 13 23.5 18.5 39 21.5M510 362v20.5c-29 3.5-57.5 7-70.5 45H510c0 5.5.5 9.5.5 15H439c13 38.5 41.5 41.5 70 46V508c-38-1-74-7.5-101.5-40-15-18-13-51.5 4-70 27.5-29.5 61.5-34 98.5-36M623 487.5v-45h-87.5c-4.5-24.5 5-41.5 21-53.5 26-20 55.5-27 87.5-26.5v20c-28 4-57.5 6.5-69.5 45H644v80H535v-20h88M113.5 383c-47 6-64.5 17.5-68 45.5h68v14H45v65H3v-17c0-15 1-30.5-.5-45C0 414.5 12.5 395 36 382c24-13.5 49.5-19.5 77-18.5.5 5.5.5 12.5.5 19.5M385.5 364v18.5c-8 1-16.5 1.5-24 4-9.5 3-18.5 6.5-27 12-27 18.5-25.5 59 2.5 76 7.5 4.5 15.5 8 24 10 8 2.5 16 2.5 24.5 4V508c-38.5-1-74-8-101.5-39.5-15-17.5-13-52 3.5-71 20.5-22.5 65-38 98-33.5" transform="matrix(.64241 0 0 .64241 -1.373 5.376)"/><g class="st1"><path class="st0" d="M14 212.6h-.4v16.8H4.2v-46.8h9.2v5.3h.4c1.7-3.4 5.3-5.7 10.1-5.7 7.8 0 13.2 5.9 13.2 16.5v2.9c0 10.6-5.3 16.6-13.3 16.6-4.7 0-8.2-2.2-9.8-5.6zm13.5-11.3V199c0-6.1-2.6-9.5-6.9-9.5-4.3 0-7.1 3.5-7.1 9.5v2.3c0 6 2.8 9.6 7.2 9.6 4.1 0 6.8-3.3 6.8-9.6zM75.2 198.8v2.5c0 10.4-5.8 17.1-16.2 17.1-10.5 0-16.3-6.7-16.3-17.1v-2.5c0-9.8 5.9-16.9 16.3-16.9 10.4.1 16.2 7.1 16.2 16.9zm-23.1 0v2.7c0 5.2 2 9.8 6.9 9.8s6.9-4.5 6.9-9.8v-2.7c0-5.5-2-9.7-6.9-9.7s-6.9 4.3-6.9 9.7zM120.8 217.8H111l-6.5-24.6h-.3l-6.5 24.6h-9.9l-9-35.2h9.4l5 25.6h.4l6.4-25.6h8.8l6.4 25.6h.4l5-25.6h9.3l-9.1 35.2zM133 201.5v-3.1c0-10.5 6.5-16.5 15.8-16.5 9.7 0 15.7 6.5 15.7 16.7v3.5h-22.4v1.1c0 5 2.9 8.2 7.1 8.2 3.4 0 5.8-1.7 6.4-4.4h8.6c-.7 5.6-5.3 11.4-15 11.4s-16.2-5.9-16.2-16.9zm22.5-5c0-4.4-2.6-7.7-6.7-7.7s-6.7 3.3-6.7 7.6v.1h13.4zM171.3 182.6h9.3v5h.4c.8-2.3 3.4-5.5 8.1-5.5 1.3 0 2.2.1 2.9.3v8c-.7-.2-2.1-.4-3.6-.4-5.6 0-7.6 3.3-7.6 8.1v19.7h-9.6v-35.2zM195.7 201.5v-3.1c0-10.5 6.5-16.5 15.8-16.5 9.7 0 15.7 6.5 15.7 16.7v3.5h-22.4v1.1c0 5 2.9 8.2 7.1 8.2 3.4 0 5.8-1.7 6.4-4.4h8.6c-.7 5.6-5.3 11.4-15 11.4s-16.2-5.9-16.2-16.9zm22.6-5c0-4.4-2.6-7.7-6.7-7.7s-6.7 3.3-6.7 7.6v.1h13.4zM256 187.8h.4v-17.6h9.3v47.5h-9.2v-5.5h-.4c-1.6 3.6-5.3 5.9-10.1 5.9-8.4 0-13.3-6.3-13.3-16.6v-2.9c0-10.2 5.1-16.5 13.3-16.5 4.8.1 8.5 2.4 10 5.7zM242.3 199v2.4c0 6.3 2.9 9.5 7 9.5 4.3 0 7.2-3.3 7.2-9.4V199c0-6-2.9-9.5-7.2-9.5-4.1 0-7 3.1-7 9.5zM297.2 212.3h-.4v5.5h-9.2v-47.5h9.3v17.5h.4c1.5-3.3 5.4-5.6 10.1-5.6 7.9 0 13.3 5.7 13.3 16.5v3c0 10.5-5.2 16.5-13.3 16.5-5 0-8.5-2.3-10.2-5.9zm13.9-10.9V199c0-6.2-2.8-9.5-6.9-9.5-4.5 0-7.3 3.2-7.3 9.5v2.3c0 6.2 2.9 9.5 7.3 9.5 4.1.1 6.9-3.2 6.9-9.4z"/></g><path class="st1 st0" d="M346.7 216.6l-.9 2.4c-2.4 6.4-5.9 11.3-15.1 11.3-2 0-4.1-.2-5.1-.4v-6.6c.6.1 2 .2 2.9.2 4.4 0 5.8-1.7 6.3-4.6l.3-1.1-12-35.2h10.3l7.1 27h.4l7.3-27h9.9s-11.2 33.6-11.4 34z"/></svg>