<?xml version="1.0" encoding="UTF-8" standalone="no"?>
<!DOCTYPE svg PUBLIC "-//W3C//DTD SVG 1.1//EN" "http://www.w3.org/Graphics/SVG/1.1/DTD/svg11.dtd">
<svg width="100%" height="100%" viewBox="0 0 30 30" version="1.1" xmlns="http://www.w3.org/2000/svg" xmlns:xlink="http://www.w3.org/1999/xlink" xml:space="preserve" style="fill-rule:evenodd;clip-rule:evenodd;stroke-linejoin:round;stroke-miterlimit:1.41421;">
    <g transform="matrix(0.888889,0,0,0.888889,11,3.33333)">
        <rect x="0" y="21" width="9" height="9" style="fill:white;"/>
    </g>
    <g transform="matrix(0.888889,0,0,0.888889,3.55271e-15,3.33333)">
        <rect x="0" y="21" width="9" height="9" style="fill:white;"/>
    </g>
    <g transform="matrix(0.888889,0,0,0.888889,22,3.33333)">
        <rect x="0" y="21" width="9" height="9" style="fill:white;"/>
    </g>
    <g transform="matrix(0.888889,0,0,0.888889,0,-7.66667)">
        <rect x="0" y="21" width="9" height="9" style="fill:white;"/>
    </g>
    <g transform="matrix(0.888889,0,0,0.888889,0,-18.6667)">
        <rect x="0" y="21" width="9" height="9" style="fill:white;"/>
    </g>
    <g transform="matrix(0.888889,0,0,0.888889,22,-18.6667)">
        <rect x="0" y="21" width="9" height="9" style="fill:white;"/>
    </g>
</svg>
